Coordinates
version=1
nRows=24
nColumns=24
inDegrees=yes

Units are S.I. units (second, meters, Newtons, ...)
Angles are in degrees.

endheader
time	pelvis_tilt	pelvis_list	pelvis_rotation	pelvis_tx	pelvis_ty	pelvis_tz	hip_flexion_r	hip_adduction_r	hip_rotation_r	knee_angle_r	ankle_angle_r	subtalar_angle_r	mtp_angle_r	hip_flexion_l	hip_adduction_l	hip_rotation_l	knee_angle_l	ankle_angle_l	subtalar_angle_l	mtp_angle_l	lumbar_extension	lumbar_bending	lumbar_rotation
      1.28000000	      6.53411222	      7.38552554	     -7.83000395	     -0.74681946	      0.97773583	      0.00624027	     -9.41949144	     -8.22981251	    -10.85387626	    -20.77694014	     16.08521116	      0.53792542	      2.93111711	     13.90945042	      7.37177397	    -23.66616838	     -0.02777040	     -2.57369126	     14.51520699	     37.16533178	    -23.89283775	     -9.28705783	      6.73046344
      1.28500000	      6.63342140	      7.45674421	     -7.96863809	     -0.74129823	      0.97734159	      0.00609935	     -9.80992658	     -8.42691972	    -10.88232729	    -20.86368830	     16.15162176	      0.68964802	      3.03372962	     13.88557168	      7.42653968	    -23.41944730	     -0.61677944	     -2.63286099	     13.62280979	     37.20079098	    -23.96703694	     -9.46095118	      6.77008330
      1.29000000	      6.71802762	      7.54005788	     -7.98071586	     -0.73567840	      0.97694328	      0.00578593	    -10.23215973	     -8.61899420	    -11.08436831	    -20.91960642	     16.15516448	      0.88152338	      3.37583667	     13.87583954	      7.52380980	    -22.98034074	     -1.22649712	     -2.76205220	     12.60372276	     37.59089109	    -24.03911945	     -9.59642178	      6.61826765
      1.29500000	      6.80533509	      7.64810106	     -8.16368211	     -0.73014488	      0.97657181	      0.00570072	    -10.55538298	     -8.86562350	    -11.04664007	    -21.08042435	     16.19001929	      0.98563179	      3.58408060	     13.84814973	      7.61860749	    -22.75244370	     -1.78080044	     -3.00336817	     11.61153072	     37.75095784	    -24.08873493	     -9.82967690	      6.69915700
      1.30000000	      6.86350373	      7.75516597	     -8.19130774	     -0.72449914	      0.97619690	      0.00541802	    -10.90823800	     -9.08156062	    -11.19773665	    -21.18747210	     16.00872307	      1.06036151	      4.98038322	     13.84783128	      7.74804198	    -22.33366218	     -2.32824264	     -3.43864473	     10.37961203	     39.59675522	    -24.12401170	    -10.00099331	      6.56912736
      1.30500000	      6.88849318	      7.87745805	     -8.31409981	     -0.71899637	      0.97579656	      0.00523734	    -11.11837424	     -9.32829390	    -11.16767163	    -21.44131048	     15.99732690	      1.10550836	      5.12490333	     13.88351640	      7.86834868	    -21.99320147	     -2.86610998	     -3.77336714	      9.34775472	     39.59272781	    -24.11943010	    -10.22198455	      6.56901124
      1.31000000	      6.88986768	      8.00636381	     -8.34452076	     -0.71342345	      0.97540760	      0.00492025	    -11.32144448	     -9.56521118	    -11.23300299	    -21.69274664	     15.79764796	      1.09893804	      6.37549913	     13.94181415	      8.01948187	    -21.56275590	     -3.39175305	     -4.24551973	      8.14325578	     40.88417006	    -24.10040542	    -10.41070934	      6.43625365
      1.31500000	      6.88436174	      8.14412572	     -8.42490223	     -0.70792218	      0.97506222	      0.00465907	    -11.44348484	     -9.81937016	    -11.16960639	    -22.04924679	     15.71236873	      1.08488181	      6.58089472	     14.00054807	      8.17070085	    -21.18810624	     -3.90209919	     -4.63346194	      7.09584140	     40.92169421	    -24.07293489	    -10.62770302	      6.37109114
      1.32000000	      6.80706291	      8.30078759	     -8.47639857	     -0.70243555	      0.97467088	      0.00434851	    -11.43668411	    -10.07934804	    -11.07820623	    -22.48683630	     15.40347970	      0.87840657	      8.02227645	     14.13306406	      8.33578352	    -20.80551573	     -4.38339925	     -5.17808811	      6.01448365	     42.13441446	    -23.97036833	    -10.84867823	      6.28781678
      1.32500000	      6.83134293	      8.47135054	     -8.54910615	     -0.69692716	      0.97446822	      0.00404217	    -11.50180331	    -10.37581296	    -10.96001251	    -22.99009387	     15.22337778	      0.74429798	      8.21542800	     14.13916414	      8.53668619	    -20.44936672	     -4.84332657	     -5.61641054	      5.08108818	     42.13351427	    -23.97864352	    -11.09843993	      6.21063334
      1.33000000	      6.69854768	      8.63184691	     -8.57963744	     -0.69149594	      0.97410661	      0.00368596	    -11.32496263	    -10.62864372	    -10.75308118	    -23.60607203	     14.76819861	      0.38584134	     10.02037217	     14.33642152	      8.69720161	    -20.09347066	     -5.34371233	     -6.09270007	      4.09534971	     43.23486933	    -23.82689058	    -11.31010907	      6.10562976
      1.33500000	      6.71684286	      8.81030284	     -8.61770399	     -0.68598401	      0.97402540	      0.00330010	    -11.28835595	    -10.92848166	    -10.55703110	    -24.27301358	     14.46102694	      0.15852789	     10.29701124	     14.34271668	      8.91463887	    -19.71686669	     -5.80699025	     -6.47451413	      3.21256933	     43.23987155	    -23.83743864	    -11.55131566	      5.98020410
      1.34000000	      6.57774753	      8.98263332	     -8.64852610	     -0.68060515	      0.97376922	      0.00292643	    -10.97061829	    -11.19428517	    -10.24714772	    -25.09262871	     13.83684615	     -0.39555147	     12.41639586	     14.55549373	      9.07762117	    -19.44346294	     -6.33894588	     -6.85988488	      2.40665444	     44.02077847	    -23.68686367	    -11.77444776	      5.89840179
      1.34500000	      6.53059475	      9.16659662	     -8.61413924	     -0.67516619	      0.97367807	      0.00239941	    -10.73464252	    -11.48728310	    -10.02322168	    -25.99378584	     13.42698718	     -0.74089501	     13.01230682	     14.66324232	      9.29497600	    -19.01737713	     -6.88226561	     -7.13016073	      1.56333521	     44.04972751	    -23.64931804	    -11.98540595	      5.72037187
      1.35000000	      6.37850784	      9.33320621	     -8.61977879	     -0.66983155	      0.97352837	      0.00197380	    -10.27287847	    -11.74403981	     -9.62989100	    -27.02527281	     12.74264935	     -1.29196124	     14.45511190	     14.90670862	      9.44732519	    -18.76248955	     -7.47454578	     -7.38439954	      0.83804244	     44.22053838	    -23.49738706	    -12.18749894	      5.58470709
      1.35500000	      6.38908719	      9.50688834	     -8.66785809	     -0.66441028	      0.97364119	      0.00156112	     -9.94208059	    -12.04266045	     -9.23101287	    -28.10675066	     11.91085618	     -1.94039290	     16.41956606	     14.95215265	      9.63460223	    -18.53347191	     -8.03774750	     -7.49139957	      0.23402643	     44.29396658	    -23.50980522	    -12.42390692	      5.54981662
      1.36000000	      6.29706763	      9.66894662	     -8.63863613	     -0.65910556	      0.97363193	      0.00103713	     -9.41907256	    -12.30598745	     -8.83213615	    -29.35372125	     11.22986320	     -2.46211683	     17.28673560	     15.14515938	      9.80088378	    -18.23191252	     -8.68245703	     -7.55161886	     -0.45023164	     44.15461897	    -23.43998542	    -12.60604865	      5.37338923
      1.36500000	      6.26049508	      9.83293983	     -8.67626670	     -0.65376698	      0.97376078	      0.00060625	     -8.88296408	    -12.58438394	     -8.34758639	    -30.65365753	     10.26696422	     -3.16739396	     19.11534615	     15.27162452	      9.95942843	    -18.02671946	     -9.33001201	     -7.48310936	     -0.94281787	     43.83881172	    -23.40926138	    -12.82316635	      5.34802154
      1.37000000	      6.17068734	      9.99325014	     -8.64205881	     -0.64849966	      0.97381757	      0.00005579	     -8.22494036	    -12.84981683	     -7.91880269	    -32.08559772	      9.43229522	     -3.71639308	     20.01787005	     15.47803627	     10.12063537	    -17.76478036	    -10.02593429	     -7.40105548	     -1.51071234	     43.53099482	    -23.34353172	    -12.99706141	      5.17953458
      1.37500000	      6.07117471	     10.14956313	     -8.63880194	     -0.64327650	      0.97387595	     -0.00045667	     -7.47107659	    -13.10978934	     -7.42524578	    -33.61199719	      8.48632386	     -4.33416215	     21.11890549	     15.69691306	     10.26704163	    -17.54375667	    -10.73230241	     -7.20769638	     -1.96759629	     43.07680974	    -23.26060904	    -13.17881698	      5.08897709
      1.38000000	      6.02666480	     10.27326011	     -8.65106886	     -0.63808853	      0.97401557	     -0.00099061	     -6.72189728	    -13.34442728	     -6.91959652	    -35.19380409	      7.51252933	     -4.93930242	     21.97465441	     15.84777598	     10.39588995	    -17.28801445	    -11.43523733	     -6.91468894	     -2.43444597	     42.63025754	    -23.23788820	    -13.33153197	      5.08841488
      1.38500000	      6.00194994	     10.45352088	     -8.65429223	     -0.63280288	      0.97422015	     -0.00150278	     -5.95971046	    -13.65007825	     -6.47797524	    -36.78709705	      6.29038822	     -5.57992350	     23.81027072	     15.94784393	     10.58737411	    -17.16124616	    -12.08388370	     -6.61543273	     -2.60225592	     41.59633590	    -23.22407720	    -13.54172295	      4.98824042
      1.39000000	      5.93263761	     10.60203224	     -8.65317115	     -0.62767533	      0.97431398	     -0.00200734	     -5.07264048	    -13.89646377	     -5.96932568	    -38.48506037	      5.31265228	     -6.10683893	     24.26024461	     16.11363072	     10.73850884	    -17.01092510	    -12.76346450	     -6.27965930	     -2.93149737	     41.20610117	    -23.17744182	    -13.71188290	      4.86410720
      1.39500000	      5.82959493	     10.76492963	     -8.66482347	     -0.62255995	      0.97436676	     -0.00251624	     -4.09683342	    -14.15646650	     -5.45561645	    -40.20952302	      4.25641721	     -6.61674917	     24.90820338	     16.29411558	     10.89962439	    -16.91067849	    -13.40050039	     -5.90647198	     -3.12495054	     40.55057904	    -23.08139461	    -13.89634934	      4.79622304
